<svg id="Layer_1" data-name="Layer 1" xmlns="http://www.w3.org/2000/svg" viewBox="0 0 94.5 63.58"><defs><style>.cls-1,.cls-4{fill:#f3d161;stroke:#a57302;}.cls-1,.cls-5{stroke-miterlimit:10;}.cls-1,.cls-4,.cls-5{stroke-width:2px;}.cls-2{fill:#ffe8a9;}.cls-3{fill:#e0e0e0;}.cls-4{stroke-linecap:round;stroke-linejoin:round;}.cls-5{fill:#ff9452;stroke:#d85107;}</style></defs><path class="cls-1" d="M22.63,49.62A28.41,28.41,0,0,0,50.88,78H51a28.41,28.41,0,0,0,8.6-55.49,13.61,13.61,0,0,1-4.13-2.08,21.25,21.25,0,0,0-2.37-1.59c-4.63-2.68-9.33-3.21-10.49-1.21-.63,1.09-.09,2.71,1.29,4.4-3.59-1.22-6.69-1.16-7.3.26-.29.65,0,1.5.72,2.39A28.39,28.39,0,0,0,22.63,49.62Z" transform="translate(-2.75 -15.46)"/><ellipse cx="64.28" cy="42.61" rx="4.44" ry="7.14" transform="translate(-11.17 1.41) rotate(-14.04)"/><path class="cls-2" d="M50.63,77h.16A28.38,28.38,0,0,0,74.54,64.19c-3.76-1-9.23,0-14.45,3.07C55.44,70,52,73.59,50.63,77Z" transform="translate(-2.75 -15.46)"/><ellipse class="cls-3" cx="65.48" cy="40.09" rx="1.61" ry="2.36" transform="matrix(0.93, -0.37, 0.37, 0.93, -12.97, 11.82)"/><path class="cls-4" d="M51,51.8S43,33.46,17.37,36.28c-5.12,1,5.26,6,5.26,6s-8.07-2.15-10.12,0,10.12,5.57,10.12,5.57-13.2-1.2-16.27,0S.85,51,11.74,53.7s23.57-.52,28.69,2.3" transform="translate(-2.75 -15.46)"/><path class="cls-5" d="M89.44,61S84.67,66.75,75,63.88c-3.8-1.07-4.87-3.82,0-4.61S89.44,61,89.44,61Z" transform="translate(-2.75 -15.46)"/><path class="cls-5" d="M79.45,47.51s7.81,7.29,15.09,6.72c4.28-.33,0,4.59-7.18,6.18a19.76,19.76,0,0,1-17.48-4.49s-1.81-4.21,4.05-5.05S79.45,47.51,79.45,47.51Z" transform="translate(-2.75 -15.46)"/></svg>