<svg id="Layer_1" data-name="Layer 1" xmlns="http://www.w3.org/2000/svg" viewBox="0 0 1192.53 938"><defs><style>.cls-1{fill:#ed5f59;}.cls-2{fill:#f1985f;}.cls-3{fill:#eed173;}.cls-4{fill:#98c586;}.cls-5{fill:#76b4f0;}.cls-6{fill:#ab8df8;}.cls-7{fill:#ef88aa;}</style></defs><path class="cls-1" d="M1155.73,956.05H2.8V664.19C61.8,685,118.88,715,181,711.09c121.57-7.61,199.44-138.86,319.45-158.81,37.8-6.29,76.92-.8,114.78-6.75s77.66-28.85,82.78-65c5.92-41.76-36.35-75.32-77.35-91.41-98.31-38.6-223.27-35.45-289.9-114.21C278,212.54,279.36,114.62,212.61,65.78c-16.2-11.85-66.82-27.64-96.3-47.73h1079a925.51,925.51,0,0,0-129,64.86c-31,18.77-62.58,41.55-74,74.72-12.33,35.7,1.56,74.84-3.77,112.06C975.32,361.59,854.19,411,836,502.14c-13.56,67.8,35.46,132.52,89.68,178.46S1044,765.89,1077.65,827C1102.2,871.62,1112.78,929.42,1155.73,956.05Z" transform="translate(-2.8 -18.05)"/><path class="cls-2" d="M1155.73,956.05H2.8V933.93c175-21.43,155.69-217.31,345-222.08,210.78-5.31,138.16-90.33,281.63-143.47,39.48-14.62,83-39.43,88.77-85.26,5.15-40.71-13.43-91.08-44.52-118-21.29-18.42-47.67-30-72.8-42.14-42.77-20.55-87.46-37.07-129.08-60-38.08-21-95.61-40.76-111.12-86-13-38,6.67-79.49,2.39-118.47-1.52-13.9-5.62-27.45-11.1-40.52h843.39a925.51,925.51,0,0,0-129,64.86c-31,18.77-62.58,41.55-74,74.72-12.33,35.7,1.56,74.84-3.77,112.06C975.32,361.59,854.19,411,836,502.14c-13.56,67.8,35.46,132.52,89.68,178.46S1044,765.89,1077.65,827C1102.2,871.62,1112.78,929.42,1155.73,956.05Z" transform="translate(-2.8 -18.05)"/><path class="cls-3" d="M1155.73,956.05h-938c84-61.5,244.58-121.69,221-168.88-36.12-72.25,129.28-72.25,199.62-119.77S729.54,553.32,733.34,426s-169.2-190.12-270-254.76c-51.13-32.8-40.78-97.43-18.18-153.14h750.14a925.51,925.51,0,0,0-129,64.86c-31,18.77-62.58,41.55-74,74.72-12.33,35.7,1.56,74.84-3.77,112.06C975.32,361.59,854.19,411,836,502.14c-13.56,67.8,35.46,132.52,89.68,178.46S1044,765.89,1077.65,827C1102.2,871.62,1112.78,929.42,1155.73,956.05Z" transform="translate(-2.8 -18.05)"/><path class="cls-4" d="M1155.73,956.05H500.58c-.94-1.27-2-2.54-3.1-3.79C467.43,918.82,515.93,871,537,847.37c23.48-26.31,52.89-51,63.42-85.92,7.2-23.86,8.16-45.75,26.33-64.52,16.13-16.67,38.08-26.36,55.5-41.51,67.37-58.59,84.4-160.53,75.77-245.13-5.75-56.35-23.44-115-58.26-160.37-17.78-23.19-40.45-42.74-67.64-54-28.79-11.9-68.57-2.17-92.11-25.06-28-27.21-9.89-64.55,5.18-93a171.29,171.29,0,0,0,19.25-59.85h630.86a925.51,925.51,0,0,0-129,64.86c-31,18.77-62.58,41.55-74,74.72-12.33,35.7,1.56,74.84-3.77,112.06C975.32,361.59,854.19,411,836,502.14c-13.56,67.8,35.46,132.52,89.68,178.46S1044,765.89,1077.65,827C1102.2,871.62,1112.78,929.42,1155.73,956.05Z" transform="translate(-2.8 -18.05)"/><path class="cls-5" d="M1155.73,956.05H724.56a368.23,368.23,0,0,1-46.35-47.2c-76.05-93.16,72.24-287.08,104.09-405S763.76,224.42,682,114.15C653.88,76.2,670.56,44,704.54,18.05h490.79a925.51,925.51,0,0,0-129,64.86c-31,18.77-62.58,41.55-74,74.72-12.33,35.7,1.56,74.84-3.77,112.06C975.32,361.59,854.19,411,836,502.14c-13.56,67.8,35.46,132.52,89.68,178.46S1044,765.89,1077.65,827C1102.2,871.62,1112.78,929.42,1155.73,956.05Z" transform="translate(-2.8 -18.05)"/><path class="cls-6" d="M1155.73,956.05H970.66c-42.88-38.48-108.57-85.23-174.58-85.23-72.94,0-64.2-112-58.52-158.86C747.68,628.52,792.3,555.62,810,475.57c9.7-44,8.16-90.6,6.47-135.33-3.06-80.46-9.44-168.66,40.5-237.49a282.38,282.38,0,0,0,42.25-84.7h296.16a925.51,925.51,0,0,0-129,64.86c-31,18.77-62.58,41.55-74,74.72-12.33,35.7,1.56,74.84-3.77,112.06C975.32,361.59,854.19,411,836,502.14c-13.56,67.8,35.46,132.52,89.68,178.46S1044,765.89,1077.65,827C1102.2,871.62,1112.78,929.42,1155.73,956.05Z" transform="translate(-2.8 -18.05)"/><path class="cls-7" d="M1155.73,956.05H1071.1c-32.32-38.82-12.42-113.95-128.63-125.15-157.8-15.21-144.49-192-144.49-192s7.61-145.55,62.74-277.57-11.41-173,116-300.39c16.06-16.06,28.53-30.28,38.06-42.87h180.58a925.51,925.51,0,0,0-129,64.86c-31,18.77-62.58,41.55-74,74.72-12.33,35.7,1.56,74.84-3.77,112.06C975.32,361.59,854.19,411,836,502.14c-13.56,67.8,35.46,132.52,89.68,178.46S1044,765.89,1077.65,827C1102.2,871.62,1112.78,929.42,1155.73,956.05Z" transform="translate(-2.8 -18.05)"/></svg>