<svg id="Layer_1" data-name="Layer 1" xmlns="http://www.w3.org/2000/svg" viewBox="0 0 887.8 782.24"><defs><style>.cls-1{fill:#81b3f3;}.cls-2{fill:#98c586;}.cls-3{fill:#e9d069;}.cls-4{fill:#e69256;}.cls-5{fill:#df5353;}</style></defs><path class="cls-1" d="M943.9,191.87V270c-16.83,6.92-34.83,13.2-51.56,20.08-62.5,25.71-111,62.63-137.09,104.34-25.67,41-29.67,85.45-48.26,127.74s-57.12,85.44-125.85,103.46C534.28,637.92,478,637.27,435.77,654.26c-30.38,12.23-48.91,31.91-64.39,51.35C331.15,756.12,304.16,810,261.31,859.75a370.09,370.09,0,0,1-104.16,84.5C133,957.38,85.22,973.8,56.1,974.11V553.23c1.66.09,3.31.21,5,.37,3.3.3,6.59.73,9.86,1.27q2.44.4,4.89.9c58.92,11.4,110.68,44,171.41,36.4,18-2.26,33.51-7.82,48-14.58l4.34-2.06,2.15-1.06q3.21-1.59,6.39-3.23l2.11-1.1c2.82-1.47,5.62-3,8.42-4.44,23.09-12.27,46-24.63,76-27.59,2.49-.25,5-.42,7.52-.53h0c1.25-.06,2.51-.1,3.77-.13,6.4-.13,12.86.09,19.36.55,1.53.1,3.07.22,4.61.35,5.52.47,11.06,1.08,16.59,1.75l4.32.53,7.88,1,7.08.9,1.69.21c6.5.8,13,1.54,19.33,2.06l.92.07c18,1.42,35.37,1.09,51.19-4.18a66.26,66.26,0,0,0,17-8.38c.48-.33.95-.67,1.41-1q2.07-1.54,3.95-3.18c.83-.73,1.63-1.47,2.41-2.23a70,70,0,0,0,13.88-19.68c46.48-95.39-60.43-197.15-27.06-294.35q1.23-3.57,2.69-7.09c.33-.79.67-1.57,1-2.34s.7-1.56,1.06-2.33h0l1.11-2.32c.39-.77.77-1.54,1.17-2.31h0c.4-.77.81-1.54,1.22-2.3h0l.7-1.27Z" transform="translate(-56.1 -191.87)"/><path class="cls-2" d="M943.9,191.87v23.38c-174,30.1-227.63,165.12-258.87,264.88S609.18,607.4,528.85,620.31s-209.76,6.88-269.27,136.74C212.29,860.29,100.11,913,56.1,930.24v-377c1.66.09,3.31.21,5,.37,3.3.3,6.59.73,9.86,1.27q2.44.4,4.89.9c58.92,11.4,110.68,44,171.41,36.4,18-2.26,33.51-7.82,48-14.58,1.45-.68,2.9-1.36,4.34-2.06l2.15-1.06q3.21-1.59,6.39-3.23l2.11-1.1c2.82-1.46,5.62-2.95,8.42-4.44,23.09-12.26,46-24.62,76-27.58q3.74-.36,7.52-.54h0c1.25-.06,2.51-.1,3.77-.13,6.4-.13,12.86.09,19.36.55,1.53.1,3.07.22,4.61.35,5.52.47,11.06,1.08,16.59,1.75l4.32.53,7.88,1,7.08.9,1.69.21c6.51.81,13,1.54,19.33,2.06l.92.07c18,1.42,35.37,1.1,51.19-4.17a66,66,0,0,0,17-8.39c.48-.33.95-.67,1.41-1q2.07-1.53,3.95-3.18c.83-.73,1.63-1.47,2.41-2.23a70,70,0,0,0,13.88-19.68c46.48-95.39-60.43-197.15-27.06-294.35q1.23-3.57,2.69-7.09c.33-.79.67-1.57,1-2.34s.7-1.56,1.06-2.33h0l1.11-2.32c.39-.77.77-1.54,1.17-2.31h0c.4-.77.81-1.54,1.22-2.3h0c.23-.42.46-.85.71-1.27Z" transform="translate(-56.1 -191.87)"/><path class="cls-3" d="M821.18,191.87c-171.36,92.69-129,348.66-232.84,390.59C464.88,632.35,304.22,591.92,246.2,696,197.11,784,88.4,835.75,56.1,849.58V553.23c1.66.09,3.31.21,5,.37,3.3.3,6.59.73,9.86,1.27q2.44.4,4.89.9c58.92,11.4,110.68,44,171.41,36.4,18-2.26,33.51-7.82,48-14.58,1.45-.68,2.9-1.36,4.34-2.06l2.15-1.06q3.21-1.59,6.39-3.23l2.11-1.1c2.82-1.46,5.62-2.95,8.42-4.44,23.09-12.26,46-24.62,76-27.58q3.74-.36,7.52-.54h0c1.25-.06,2.51-.1,3.77-.13,6.4-.13,12.86.09,19.36.55,1.53.1,3.07.22,4.61.35,5.52.47,11.06,1.08,16.59,1.75l4.32.53,7.88,1,7.08.9,1.69.21c6.51.81,13,1.54,19.33,2.06l.92.07c18,1.42,35.37,1.1,51.19-4.17a66,66,0,0,0,17-8.39c.48-.33.95-.67,1.41-1q2.07-1.53,3.95-3.18c.83-.73,1.63-1.47,2.41-2.23a70,70,0,0,0,13.88-19.68c46.48-95.39-60.43-197.15-27.06-294.35q1.23-3.57,2.69-7.09c.33-.79.67-1.57,1-2.34s.7-1.56,1.06-2.33h0l1.11-2.32c.39-.77.77-1.54,1.17-2.31h0c.4-.77.81-1.54,1.22-2.3h0c.23-.42.46-.85.71-1.27Z" transform="translate(-56.1 -191.87)"/><path class="cls-4" d="M740.31,191.87A263.06,263.06,0,0,0,710.14,223c-62.9,76.79-59.92,279.13-120.31,332.83S316.12,558.38,222.63,647C139.33,725.9,70.17,737.24,56.1,738.77V553.23c1.66.09,3.31.21,5,.37q4.95.46,9.86,1.27,2.44.4,4.89.9c58.92,11.4,110.68,44,171.41,36.4,18-2.26,33.51-7.82,48-14.58,1.45-.68,2.9-1.36,4.34-2.06l2.15-1.06q3.21-1.59,6.39-3.23l2.11-1.1c2.82-1.46,5.62-2.95,8.42-4.44,23.09-12.26,46-24.62,76-27.58q3.74-.36,7.52-.54h0c1.25-.06,2.51-.1,3.77-.13,6.4-.13,12.86.09,19.36.55,1.53.1,3.07.22,4.61.35,5.52.47,11.06,1.08,16.59,1.75l4.32.53,7.88,1,7.08.9,1.69.21c6.51.81,13,1.54,19.33,2.06l.92.07c18,1.42,35.37,1.1,51.19-4.17a66,66,0,0,0,17-8.39c.48-.33.95-.67,1.41-1q2.07-1.53,3.95-3.18c.83-.73,1.63-1.47,2.41-2.23a70,70,0,0,0,13.88-19.68c46.48-95.39-60.43-197.15-27.06-294.35q1.23-3.57,2.69-7.09c.33-.79.67-1.57,1-2.34s.7-1.56,1.06-2.33h0l1.11-2.32c.39-.77.77-1.54,1.17-2.31h0c.4-.77.81-1.54,1.22-2.3h0c.23-.42.46-.85.71-1.27Z" transform="translate(-56.1 -191.87)"/><path class="cls-5" d="M609.25,332.66c.25,57,9.54,114.72-9.86,170.64-7.11,20.45-19.74,41.91-49,54.07C516.92,571.25,472,569.2,430.91,570.48c-66,2-131,14.37-186.22,35.36-33.63,12.78-64.37,28.79-101.52,38.21-21.72,5.51-62.35,12.6-87.07,5.18v-96c1.66.09,3.31.21,5,.37,3.3.3,6.59.73,9.86,1.27q2.44.4,4.89.9c58.92,11.4,110.68,44,171.41,36.4,18-2.26,33.51-7.82,48-14.58,1.45-.68,2.9-1.36,4.34-2.06l2.15-1.06q3.21-1.59,6.39-3.23l2.11-1.1c2.82-1.46,5.62-2.95,8.42-4.44,23.09-12.26,46-24.62,76-27.58q3.74-.36,7.52-.54h0c1.25-.06,2.51-.1,3.77-.13,6.4-.13,12.86.09,19.36.55,1.53.1,3.07.22,4.61.35,5.52.47,11.06,1.08,16.59,1.75l4.32.53,7.88,1,7.08.9,1.69.21c6.51.81,13,1.54,19.33,2.06l.92.07c18,1.42,35.37,1.1,51.19-4.17a66,66,0,0,0,17-8.39c.48-.33.95-.67,1.41-1q2.07-1.53,3.95-3.18c.83-.73,1.63-1.47,2.41-2.23a70,70,0,0,0,13.88-19.68c46.48-95.39-60.43-197.15-27.06-294.35q1.23-3.57,2.69-7.09c.33-.79.67-1.57,1-2.34s.7-1.56,1.06-2.33h0l1.11-2.32c.39-.77.77-1.54,1.17-2.31h0c.4-.77.81-1.54,1.22-2.3.23-.43.47-.85.71-1.28h90.65C616.34,235,609.06,284.76,609.25,332.66Z" transform="translate(-56.1 -191.87)"/></svg>