<svg id="Layer_1" data-name="Layer 1" xmlns="http://www.w3.org/2000/svg" viewBox="0 0 774.13 885.11"><defs><style>.cls-1{fill:#ed5f59;}.cls-2{fill:#f1985f;}.cls-3{fill:#eed173;}.cls-4{fill:#91c48a;}.cls-5{fill:#76b4f0;}.cls-6{fill:#ab8df8;}.cls-7{fill:#ef88aa;}</style></defs><path class="cls-1" d="M929.25,422.09C901.54,475.6,841.62,520,847,579.24c3.94,43.63,42.95,76.82,59.44,117.79,19.13,47.6,3.82,105.59-36.77,139.31-21.88,18.16-49.54,29.29-71.52,47.33s-38,47.78-25.75,72.67c1.47,3,3.33,6,5.08,9.06l.86,1.52c.47.85.94,1.71,1.38,2.58H172.39v-224c29.37,11,59.59,18.14,89.5,10.6,40-10.1,67.17-43.56,95.61-71.81,58.9-58.46,135.62-101.47,219.08-119.93,36.85-8.16,75.24-11.72,109.94-25.91s66.33-42.37,69.32-77.77c2.9-34.33-22-66.19-52.51-85.32S636.76,346.74,602.63,334c-78.75-29.36-150.81-78.63-195.14-146.36-22.64-34.61-39.36-75.07-69-103.27H912.27c-24.55,25.34-41,58-36.47,91.42,5.29,39.22,37.14,70.08,54.84,106A156.9,156.9,0,0,1,929.25,422.09Z" transform="translate(-172.39 -84.39)"/><path class="cls-2" d="M929.25,422.09C901.54,475.6,841.62,520,847,579.24c3.94,43.63,42.95,76.82,59.44,117.79,19.13,47.6,3.82,105.59-36.77,139.31-21.88,18.16-49.54,29.29-71.52,47.33s-38,47.78-25.75,72.67c1.47,3,3.33,6,5.08,9.06l.86,1.52c.47.85.94,1.71,1.38,2.58H172.39V839.28c252.82,32.37,131.13-138.86,348.84-195.35,218-56.56,241-155.72,241-155.72s74.55-133.75-142-235.41c-95.16-44.68-139-109.63-158.21-168.41H912.27c-24.55,25.34-41,58-36.47,91.42,5.29,39.22,37.14,70.08,54.84,106A156.9,156.9,0,0,1,929.25,422.09Z" transform="translate(-172.39 -84.39)"/><path class="cls-3" d="M929.25,422.09C901.54,475.6,841.62,520,847,579.24c3.94,43.63,42.95,76.82,59.44,117.79,19.13,47.6,3.82,105.59-36.77,139.31-21.88,18.16-49.54,29.29-71.52,47.33s-38,47.78-25.75,72.67c1.47,3,3.33,6,5.08,9.06l.86,1.52c.47.85.94,1.71,1.38,2.58H172.39v-9.64c69.58-16.44,133.34-42.81,156.19-85,59-109.12,193.9-166.06,290-211.93S777.13,538,800.72,427.24s-70.82-183.47-182.11-253c-39.74-24.84-56.05-57.75-60.58-89.8H912.27c-24.55,25.34-41,58-36.47,91.42,5.29,39.22,37.14,70.08,54.84,106A156.9,156.9,0,0,1,929.25,422.09Z" transform="translate(-172.39 -84.39)"/><path class="cls-4" d="M930.64,281.76a156.9,156.9,0,0,1-1.39,140.33C901.54,475.6,841.62,520,847,579.24c3.94,43.63,42.95,76.82,59.44,117.79,19.13,47.6,3.82,105.59-36.77,139.31-21.88,18.16-49.54,29.29-71.52,47.33s-38,47.78-25.75,72.67c1.47,3,3.33,6,5.08,9.06l.86,1.52c.47.85.94,1.71,1.38,2.58H406c28.14-21.82,51-52.3,33.86-88.36-35.41-74.33,140-102.79,220.9-183.45S794,519,829.39,401.93s-104.54-200.86-172-287.84a75.58,75.58,0,0,1-14.46-29.7H912.27c-24.55,25.34-41,58-36.47,91.42C881.09,215,912.94,245.89,930.64,281.76Z" transform="translate(-172.39 -84.39)"/><path class="cls-5" d="M930.64,281.76a156.9,156.9,0,0,1-1.39,140.33C901.54,475.6,841.62,520,847,579.24c3.94,43.63,42.95,76.82,59.44,117.79,19.13,47.6,3.82,105.59-36.77,139.31-21.88,18.16-49.54,29.29-71.52,47.33s-38,47.78-25.75,72.67c1.47,3,3.33,6,5.08,9.06l.86,1.52c.47.85.94,1.71,1.38,2.58H565.9c-21.42-16.08-38.61-38.14-38.76-63.42-.22-44.13,47.68-72.19,84.5-99.67,104-77.58,147.81-203.69,202.92-317.06,19.87-40.88,42.25-82.62,42.8-127.54.9-75.39-58.22-137.53-104.81-199-14.34-18.91-28-38.89-34-61.4a77.67,77.67,0,0,1-2.6-17H912.27c-24.55,25.34-41,58-36.47,91.42C881.09,215,912.94,245.89,930.64,281.76Z" transform="translate(-172.39 -84.39)"/><path class="cls-6" d="M929.25,422.09C901.54,475.6,841.62,520,847,579.24c3.94,43.63,42.95,76.82,59.44,117.79,19.13,47.6,3.82,105.59-36.77,139.31-21.88,18.16-49.54,29.29-71.52,47.33s-38,47.78-25.75,72.67c1.47,3,3.33,6,5.08,9.06l.86,1.52c.47.85.94,1.71,1.38,2.58H682.9c-3.45-5.81-5.69-12.42-7.78-18.81-18.28-55.68-55.73-116.61,6.12-154.93l66-40.85c15.47-9.58,32.13-20.66,36.72-37.51,3.78-13.88-1.6-28.29-4.69-42.33-11.42-52.25,9.67-105.72,34.41-153.75s54-95.74,60.36-148.75c8.88-73.75-27.79-145-65-210.44-12.25-21.55-25.08-44.78-22-69a81.23,81.23,0,0,1,1.62-8.72H912.27c-24.55,25.34-41,58-36.47,91.42,5.29,39.22,37.14,70.08,54.84,106A156.9,156.9,0,0,1,929.25,422.09Z" transform="translate(-172.39 -84.39)"/><path class="cls-7" d="M929.25,422.09C901.54,475.6,841.62,520,847,579.24c3.94,43.63,42.95,76.82,59.44,117.79,19.13,47.6,3.82,105.59-36.77,139.31-21.88,18.16-49.54,29.29-71.52,47.33s-38,47.78-25.75,72.67c1.47,3,3.33,6,5.08,9.06l.86,1.52c.47.85.94,1.71,1.38,2.58H723.25a56.13,56.13,0,0,1-6.19-19.63c-3.77-30.71,19.23-58.48,43.71-79.16s52.91-39.51,66.2-67.8c20.23-43-.68-91.93-8.71-138.32a251.19,251.19,0,0,1,25.36-159c23.08-43.93,59.84-83.7,65-132.43,4.43-41.89-15.54-82.17-32.4-121.19a938.08,938.08,0,0,1-42.1-118.91c-4.24-15.19-8.25-32.51-6.23-48.69h84.38c-24.55,25.34-41,58-36.47,91.42,5.29,39.22,37.14,70.08,54.84,106A156.9,156.9,0,0,1,929.25,422.09Z" transform="translate(-172.39 -84.39)"/></svg>