<svg id="Layer_1" fill="#ACC8FF" data-name="Layer 1" xmlns="http://www.w3.org/2000/svg" viewBox="0 0 108.48 108.48"><path d="M59.35,57.4a18.83,18.83,0,0,1,.73,5.6,18.76,18.76,0,0,1-.73,5.57,8,8,0,0,1-2.1,3.61,4.67,4.67,0,0,1-3.31,1.28,4.74,4.74,0,0,1-3.36-1.28,8.17,8.17,0,0,1-2.1-3.61A19.1,19.1,0,0,1,47.75,63a19.17,19.17,0,0,1,.73-5.6,8.07,8.07,0,0,1,2.1-3.6,4.77,4.77,0,0,1,3.36-1.26,4.7,4.7,0,0,1,3.31,1.26A7.89,7.89,0,0,1,59.35,57.4Z" transform="translate(-9.76 -9.76)"/><path d="M69.73,65.55h8V55.12Zm0,0h8V55.12Zm26-55.79H32.31A22.56,22.56,0,0,0,9.76,32.31V95.69a22.56,22.56,0,0,0,22.55,22.55H95.69a22.56,22.56,0,0,0,22.55-22.55V32.31A22.56,22.56,0,0,0,95.69,9.76Zm-55.42,66a1.47,1.47,0,0,1-1,.39H25.68a1.6,1.6,0,0,1-1.11-.39,1.38,1.38,0,0,1-.43-1.07,1.56,1.56,0,0,1,.45-1.09l8.47-9.26a19.71,19.71,0,0,0,2.79-3.8,6.84,6.84,0,0,0,1-3.17,4.94,4.94,0,0,0-1.37-3.63,4.84,4.84,0,0,0-3.62-1.39,5.06,5.06,0,0,0-2,.43A6.66,6.66,0,0,0,28,53.91a6.36,6.36,0,0,0-1.35,1.67,1.59,1.59,0,0,1-.62.6,1.51,1.51,0,0,1-1.68-.25,1.18,1.18,0,0,1-.47-1,1.35,1.35,0,0,1,.24-.77c.16-.24.37-.5.62-.81a9.16,9.16,0,0,1,2-2A10.43,10.43,0,0,1,29.25,50,7.87,7.87,0,0,1,32,49.51a8.8,8.8,0,0,1,4.18,1,6.84,6.84,0,0,1,2.75,2.66,8.09,8.09,0,0,1,1,4.07,9.82,9.82,0,0,1-1.2,4.37,22.33,22.33,0,0,1-3.52,4.89L29,73.31H39.24a1.4,1.4,0,0,1,1,.41,1.35,1.35,0,0,1,.44,1A1.31,1.31,0,0,1,40.27,75.73Zm22-5.81a10.74,10.74,0,0,1-3.13,4.81,7.74,7.74,0,0,1-5.19,1.76,7.79,7.79,0,0,1-5.21-1.76,10.61,10.61,0,0,1-3.15-4.81,21.27,21.27,0,0,1-1-6.92,21.12,21.12,0,0,1,1-6.93,10.57,10.57,0,0,1,3.15-4.8,7.79,7.79,0,0,1,5.21-1.76,7.74,7.74,0,0,1,5.19,1.76,10.71,10.71,0,0,1,3.13,4.8A21.12,21.12,0,0,1,63.31,63,21.27,21.27,0,0,1,62.26,69.92Zm22-2a1.42,1.42,0,0,1-1,.39H80.73v6.22a1.5,1.5,0,0,1-.43,1.09,1.4,1.4,0,0,1-1.06.45,1.42,1.42,0,0,1-1.07-.45,1.5,1.5,0,0,1-.43-1.09V68.36H67.17a1.51,1.51,0,0,1-1-.45,1.41,1.41,0,0,1-.49-1.09,1.34,1.34,0,0,1,.41-1L78,50.48a1.64,1.64,0,0,1,.6-.45,1.66,1.66,0,0,1,.67-.15,1.35,1.35,0,0,1,1,.45,1.53,1.53,0,0,1,.41,1.09V65.55h2.52A1.4,1.4,0,0,1,84.67,67,1.36,1.36,0,0,1,84.26,68Zm18.8,4.61a8,8,0,0,1-3,2.71,8.74,8.74,0,0,1-4.22,1,8.64,8.64,0,0,1-4.2-1,8,8,0,0,1-3-2.71,6.7,6.7,0,0,1-1.1-3.73,6.21,6.21,0,0,1,.67-3A7.2,7.2,0,0,1,90,63.71a10.35,10.35,0,0,1,1.54-1.06,7.09,7.09,0,0,1-1.37-1,6.19,6.19,0,0,1-1.44-1.95,5.93,5.93,0,0,1-.56-2.59,6.75,6.75,0,0,1,1-3.69A7.53,7.53,0,0,1,92,50.86a7.82,7.82,0,0,1,3.88-1,7.75,7.75,0,0,1,6.62,3.58,6.83,6.83,0,0,1,1,3.69,5.59,5.59,0,0,1-.6,2.64,6.69,6.69,0,0,1-1.48,1.92,7.94,7.94,0,0,1-1.32.93,8.06,8.06,0,0,1,1.79,1.26,7.68,7.68,0,0,1,1.66,2.23,6,6,0,0,1,.62,2.72A6.78,6.78,0,0,1,103.06,72.58Zm-4.6-7.91a5.85,5.85,0,0,0-5.24,0,5.05,5.05,0,0,0-1.92,1.68,4.55,4.55,0,0,0,.77,5.8,5.94,5.94,0,0,0,7.54,0,4.34,4.34,0,0,0,1.48-3.34,4.4,4.4,0,0,0-.71-2.46A5,5,0,0,0,98.46,64.67Zm-4.92-3.56a4.71,4.71,0,0,0,2.3.58,4.61,4.61,0,0,0,2.29-.58,4.5,4.5,0,0,0,1.67-1.6A4.72,4.72,0,0,0,99.12,54a4.51,4.51,0,0,0-3.28-1.26A4.56,4.56,0,0,0,92.52,54a4.5,4.5,0,0,0,1,7.16Zm-15.8,4.44V55.12l-8,10.43Z" transform="translate(-9.76 -9.76)"/></svg>