<?xml version="1.0" encoding="utf-8"?>
<!-- Generator: Adobe Illustrator 25.2.3, SVG Export Plug-In . SVG Version: 6.00 Build 0)  -->
<svg version="1.1" fill="#BFFFAF" id="Layer_1" xmlns="http://www.w3.org/2000/svg" xmlns:xlink="http://www.w3.org/1999/xlink" x="0px" y="0px"
	 viewBox="0 0 128 128" style="enable-background:new 0 0 128 128;" xml:space="preserve">
<rect x="65.2" y="9.8" width="24.6" height="9.8"/>
<path d="M55.4,32h18.5H80v-3.7c0-0.7,0.6-1.2,1.2-1.2c0.7,0,1.2,0.6,1.2,1.2V32h18.5h6.2v-9.8h-16H64h-8.6V32z"/>
<path d="M35.7,103.4h49.2c2.7,0,4.9,2.2,4.9,4.9v0c0,2.7-2.2,4.9-4.9,4.9H35.7c-2.7,0-4.9-2.2-4.9-4.9v0
	C30.8,105.6,33,103.4,35.7,103.4z"/>
<polygon points="62.8,19.7 62.8,9.8 38.2,9.8 38.2,19.7 54.2,19.7 "/>
<polygon points="84.9,46.8 73.8,46.8 60.3,46.8 60.3,56.6 84.9,56.6 "/>
<polygon points="72.6,34.5 54.2,34.5 48,34.5 48,44.3 59.1,44.3 72.6,44.3 "/>
<path d="M112,56.6v-9.8h-11.1h-7.4c-0.7,0-1.2-0.6-1.2-1.2c0-0.7,0.6-1.2,1.2-1.2h6.2v-9.8H75.1v9.8h11.1c0.7,0,1.2,0.6,1.2,1.2
	v11.1H112z"/>
<path d="M96,59.1c-4.8,0-8.6,3.9-8.6,8.6s3.9,8.6,8.6,8.6s8.6-3.9,8.6-8.6S100.8,59.1,96,59.1z"/>
<polygon points="57.8,46.8 46.8,46.8 33.2,46.8 33.2,56.6 57.8,56.6 "/>
<polygon points="45.5,44.3 45.5,34.5 27.1,34.5 20.9,34.5 20.9,44.3 32,44.3 "/>
<path d="M29.5,19.7c0.7,0,1.2,0.6,1.2,1.2c0,0.7-0.6,1.2-1.2,1.2h-1.2V32h18.5h6.2v-9.8h-16c-0.7,0-1.2-0.6-1.2-1.2V9.8H11.1v9.8h16
	H29.5z"/>
<path d="M87,84.1c-0.5-0.5-1.3-0.5-1.7,0L80.4,89c-0.5,0.5-0.5,1.3,0,1.7c0.2,0.2,0.6,0.4,0.9,0.4c0.3,0,0.6-0.1,0.9-0.4l4.9-4.9
	C87.5,85.3,87.5,84.5,87,84.1z"/>
<path d="M65.6,90.7c0.2,0.2,0.6,0.4,0.9,0.4s0.6-0.1,0.9-0.4l12.3-12.3c0.5-0.5,0.5-1.3,0-1.7c-0.5-0.5-1.3-0.5-1.7,0L65.6,89
	C65.1,89.5,65.1,90.2,65.6,90.7z"/>
</svg>
