<svg fill="#FFEAA3" xmlns="http://www.w3.org/2000/svg"  viewBox="0 0 48 48" width="96px" height="96px"><path d="M42,5h-7c-0.552,0-1,0.448-1,1v2h-2c-0.552,0-1,0.448-1,1v2h-2c-0.552,0-1,0.448-1,1v2h-2c-0.552,0-1,0.448-1,1v2h-2 c-0.552,0-1,0.448-1,1v2h-2c-0.552,0-1,0.448-1,1v2h-3v-2c0-0.552-0.448-1-1-1h-2v-2c0-0.552-0.448-1-1-1h-2H8 c-0.552,0-1,0.448-1,1v2v2c0,0.552,0.448,1,1,1h2v3v2c0,0.552,0.448,1,1,1h2v3h-2c-0.552,0-1,0.448-1,1v2H7H5c-0.552,0-1,0.448-1,1 v1.944V38v3v1v1c0,0.552,0.448,1,1,1h2h3h2c0.552,0,1-0.448,1-1v-2v-3h2c0.552,0,1-0.448,1-1v-2h3v2c0,0.552,0.448,1,1,1h5v2 c0,0.552,0.448,1,1,1h2h2c0.552,0,1-0.448,1-1v-2v-2c0-0.552-0.448-1-1-1h-2v-2c0-0.552-0.448-1-1-1h-2v-3h2c0.552,0,1-0.448,1-1 v-2h2c0.552,0,1-0.448,1-1v-2h2c0.552,0,1-0.448,1-1v-2h2c0.552,0,1-0.448,1-1v-2h2c0.552,0,1-0.448,1-1v-2h2c0.552,0,1-0.448,1-1 V6C43,5.448,42.552,5,42,5z"/></svg>