<svg fill="#FFAD7B" xmlns="http://www.w3.org/2000/svg"  viewBox="0 0 512 512" width="128px" height="128px"><path d="M 189.25195 71.457031 C 136.75295 71.457031 94.042969 113.98481 94.042969 166.25781 A 93.691 93.691 0 0 0 104.48047 209.45703 L 104.48047 172.99023 A 17.544 17.544 0 0 1 139.56836 172.99023 L 139.56836 247.13086 A 95.14 95.14 0 0 0 189.25195 261.05859 C 241.75195 261.05859 284.46289 218.53081 284.46289 166.25781 C 284.46289 113.98481 241.75095 71.457031 189.25195 71.457031 z M 122.26172 165.50195 A 7.545 7.545 0 0 0 114.48242 172.99023 L 114.48242 177.84375 L 112.83984 177.84375 A 5 5 0 0 0 112.83984 187.84375 L 114.48242 187.84375 L 114.48242 231.41992 L 112.19922 231.41992 A 5 5 0 0 0 112.19922 241.41992 L 114.48438 241.41992 L 114.48438 283.67773 A 13.837 13.837 0 0 1 86.810547 283.67773 L 86.810547 260.17773 A 6.053 6.053 0 0 0 74.705078 260.17773 L 74.705078 330.53906 A 12.605 12.605 0 0 1 62.435547 343.05469 A 12.532 12.532 0 0 1 49.599609 330.59961 L 49.199219 242.3418 L 50.775391 242.3418 A 5 5 0 0 0 50.775391 232.3418 L 48.806641 232.3418 A 6.167 6.167 0 0 0 36.839844 234.39258 L 36.839844 239.24023 L 32.589844 239.24023 A 5 5 0 0 0 32.589844 249.24023 L 36.839844 249.24023 L 36.839844 273.92969 L 32.589844 273.92969 A 5 5 0 0 0 32.589844 283.92969 L 36.839844 283.92969 L 36.839844 309.80664 L 33.994141 309.80664 A 5 5 0 0 0 33.994141 319.80664 L 36.839844 319.80664 L 36.839844 331.10742 A 19.11 19.11 0 0 0 36.974609 333.29883 L 34.917969 333.29883 A 5 5 0 0 0 34.917969 343.29883 L 41.21875 343.29883 A 19.4 19.4 0 0 0 56.234375 350.39844 L 64.912109 350.4043 A 9.789 9.789 0 0 1 74.697266 360.10547 L 74.898438 369.1875 L 71.960938 369.1875 A 5 5 0 0 0 71.960938 379.1875 L 75.109375 379.1875 L 75.314453 388.75781 C 78.998453 386.14481 82.852078 383.31548 86.830078 380.27148 L 86.822266 362.73828 L 87.5625 362.73828 A 5 5 0 0 0 87.5625 352.73828 L 86.816406 352.73828 L 86.816406 341.4375 L 90.199219 341.4375 A 5 5 0 0 0 90.199219 331.4375 L 86.808594 331.4375 L 86.808594 330.19922 A 20.642 20.642 0 0 1 107.45703 309.61133 L 118.91992 309.61133 A 10.65 10.65 0 0 0 126.46484 306.48828 L 130.87891 306.48828 A 5 5 0 0 0 130.87891 296.48828 L 129.57031 296.48828 L 129.57031 282.43164 L 131.87891 282.43164 A 5 5 0 0 0 131.87891 272.43164 L 129.57031 272.43164 L 129.57031 237.83203 L 132.67773 237.83203 A 5 5 0 0 0 132.67773 227.83203 L 129.57031 227.83203 L 129.57031 206.69922 L 130.87891 206.69922 A 5 5 0 0 0 130.87891 196.69922 L 129.57031 196.69922 L 129.57031 181.25195 L 130.67773 181.25195 A 5 5 0 0 0 130.67773 171.25195 L 129.35547 171.25195 A 7.545 7.545 0 0 0 122.26172 165.50195 z M 420.62695 234.65625 A 9.623 9.623 0 0 0 411 244.2168 L 411 245.81641 L 405.74023 245.81641 A 5 5 0 0 0 405.74023 255.81641 L 411 255.81641 L 411 291.18555 L 405.74414 291.18555 A 5 5 0 0 0 405.74414 301.18555 L 411 301.18555 L 411 336.6543 C 417.529 344.4333 423.96228 351.41931 430.23828 357.69531 L 430.23828 348.47852 L 435.44531 348.47852 A 5 5 0 0 0 435.44531 338.47852 L 430.23828 338.47852 L 430.23828 323.69922 L 437.18555 323.69922 A 5 5 0 0 0 437.18555 313.69922 L 430.73438 313.69922 A 25.782 25.782 0 0 1 456.00391 293.02148 L 459.61328 293.02148 A 15.781 15.781 0 0 0 472.71289 286.04492 L 477.9668 286.04492 A 5 5 0 0 0 477.9668 276.04492 L 475.38086 276.04492 L 475.38086 268.78125 L 479.20898 268.78125 A 5 5 0 0 0 479.20898 258.78125 L 471.72852 258.78125 A 7.393 7.393 0 0 0 460.58398 265.10547 L 460.58398 268.90039 A 15.171 15.171 0 0 1 430.24219 268.90039 L 430.24219 249.01953 L 434.44336 248.80469 A 5.0005316 5.0005316 0 0 0 433.93164 238.81641 L 428.72266 239.08203 A 9.623 9.623 0 0 0 420.62695 234.65625 z M 209.16211 301.18555 A 64.71 64.71 0 0 0 178.91992 308.85742 A 116.94 116.94 0 0 0 176.41992 327.71289 C 175.96192 337.65889 176.89536 351.14936 183.94336 358.94336 C 189.28736 364.85336 197.49906 366.85255 209.03906 365.06055 C 234.06606 361.16955 254.00955 365.00227 268.31055 376.44727 C 282.24155 387.59527 286.81134 402.85903 288.27734 410.45703 L 357.82812 410.45703 C 336.41213 399.62203 303.90491 377.63048 269.62891 334.14648 C 253.00291 313.05348 231.69019 301.34655 209.61719 301.18555 L 209.16211 301.18555 z M 337.14062 302 C 348.94063 312.112 360.41875 327.71142 373.71875 351.35742 C 400.58275 399.11742 461.90702 409.68803 466.79102 410.45703 L 484.41016 410.45703 C 462.15016 399.19903 429.89131 377.05248 396.07031 334.14648 C 380.16131 313.96348 359.27763 302.592 337.14062 302 z M 321.95703 303.30859 C 305.97003 306.54159 291.03856 315.54539 278.72656 329.52539 C 331.27556 395.44239 379.7453 409.15603 384.9043 410.45703 L 430.63672 410.45703 C 408.58672 401.57703 381.34591 385.31381 365.00391 356.25781 C 349.09391 327.97381 335.75103 311.54259 321.95703 303.30859 z M 167.44727 316.28906 A 92.59 92.59 0 0 0 152.46289 331.07227 C 120.80089 370.05027 82.534797 396.94603 60.716797 410.45703 L 278.0293 410.45703 C 276.4573 403.84603 272.36184 392.44478 261.96484 384.17578 C 249.94584 374.61778 232.65717 371.51141 210.57617 374.94141 C 195.64617 377.26341 184.18472 374.13272 176.51172 365.63672 C 164.74472 352.60772 165.53027 330.14906 167.44727 316.28906 z M 60.087891 430.54297 A 5 5 0 0 0 60.087891 440.54297 L 66.587891 440.54297 A 5 5 0 0 0 66.587891 430.54297 L 60.087891 430.54297 z M 87.691406 430.54297 A 5 5 0 0 0 87.691406 440.54297 L 181.99023 440.54297 A 5 5 0 0 0 181.99023 430.54297 L 87.691406 430.54297 z"/></svg>